<svg width="20.000000" height="20.000000" viewBox="0 0 20 20" fill="none" xmlns="http://www.w3.org/2000/svg" xmlns:xlink="http://www.w3.org/1999/xlink">
	<desc>
			Created with Pixso.
	</desc>
	<defs/>
	<path id="Vector (Stroke)" d="M10 3.12C7.58 3.12 5.62 5.08 5.62 7.5C5.62 9.91 7.58 11.87 10 11.87C12.41 11.87 14.37 9.91 14.37 7.5C14.37 5.08 12.41 3.12 10 3.12ZM4.37 7.5C4.37 4.39 6.89 1.87 10 1.87C13.1 1.87 15.62 4.39 15.62 7.5C15.62 10.6 13.1 13.12 10 13.12C6.89 13.12 4.37 10.6 4.37 7.5Z" fill="#FFFFFF" fill-opacity="1.000000" fill-rule="evenodd"/>
	<path id="Vector (Stroke)" d="M10 13.12C8.57 13.12 7.17 13.5 5.93 14.21C4.7 14.92 3.67 15.95 2.96 17.18C2.79 17.48 2.4 17.58 2.1 17.41C1.81 17.24 1.7 16.86 1.88 16.56C2.7 15.13 3.88 13.95 5.31 13.12C6.73 12.3 8.35 11.87 10 11.87C11.64 11.87 13.26 12.3 14.68 13.12C16.11 13.95 17.29 15.13 18.11 16.56C18.29 16.86 18.18 17.24 17.89 17.41C17.59 17.58 17.2 17.48 17.03 17.18C16.32 15.95 15.29 14.92 14.06 14.21C12.82 13.5 11.42 13.12 10 13.12Z" fill="#FFFFFF" fill-opacity="1.000000" fill-rule="evenodd"/>
</svg>
