<svg width="27.331055" height="24.000000" viewBox="0 0 27.3311 24" fill="none" xmlns="http://www.w3.org/2000/svg" xmlns:xlink="http://www.w3.org/1999/xlink">
	<desc>
			Created with Pixso.
	</desc>
	<defs/>
	<path id="Vector" d="M17.39 1C18.35 1.01 19.29 1.3 20.09 1.83C20.9 2.36 21.53 3.11 21.91 4L26.33 4L22.29 8.03C22.03 12.09 20.23 15.89 17.27 18.67C14.3 21.45 10.39 23 6.33 23C2.33 23 1.33 21.5 1.33 21.5C1.33 21.5 5.33 20 7.33 17C7.33 17 -0.67 13 1.33 2C1.33 2 6.33 7 12.33 8L12.33 6C12.33 3.25 14.64 0.96 17.39 1Z" stroke="#858584" stroke-opacity="1.000000" stroke-width="2.000000" stroke-linejoin="round"/>
</svg>
